PathFileType	4	(X/Y/Z)	C:/Users/beibeiliu/ov580/test_trc\sequence.18_training_dense_left.trc
DataRate	CameraRate	NumFrames	NumMarkers	Units	OrigDataRate	OrigDataStartFrame	OrigNumFrames
120	120	18	19	mm	120	295	336
Frame#	Time	ThumbCMC			ThumbMCP			ThumbIP			ThumbTip			IndexMCP			IndexPIP			IndexTip			MiddleMCP			MiddlePIP			MiddleTip			RingMCP			RingPIP			RingTip			PinkyMCP			PinkyPIP			PinkyTip			BackHand1			BackHand2			BackHand3	
		X0	Y0	Z0	X1	Y1	Z1	X2	Y2	Z2	X3	Y3	Z3	X4	Y4	Z4	X5	Y5	Z5	X6	Y6	Z6	X7	Y7	Z7	X8	Y8	Z8	X9	Y9	Z9	X10	Y10	Z10	X11	Y11	Z11	X12	Y12	Z12	X13	Y13	Z13	X14	Y14	Z14	X15	Y15	Z15	X16	Y16	Z16	X17	Y17	Z17	X18	Y18	Z18	
294	2.45	-206.949	8.96933	23.141	-198.072	6.39703	-2.45845	-190.172	7.72192	-21.7446	-185.602	8.83897	-42.1769	-203.013	60.397	-15.3672	-205.148	61.8806	-45.6206	-209.563	30.4446	-49.3308	-224.125	71.9116	-23.4834	-223.22	68.4413	-50.7629	-226.04	31.7553	-46.1209	-242.599	67.8625	-18.2832	-240.186	63.4037	-46.9698	-241.728	37.0262	-48.7433	-259.607	63.9503	-14.6851	-254.945	60.9202	-38.647	-248.7	36.4596	-46.1705	-248.519	48.8995	20.1298	-254.387	33.764	45.1019	-225.253	35.8908	34.8687	
295	2.45833	-210.556	8.45382	25.6807	-194.903	3.13072	-2.45135	-189.952	6.94563	-21.8228	-180.932	8.20817	-45.3465	-200.503	61.9002	-20.0753	-203.859	58.4371	-46.9316	-207.308	31.0539	-51.6392	-220.278	67.9855	-21.4774	-222.519	66.6912	-51.3285	-226.136	31.4379	-47.357	-239.411	65.1122	-19.4483	-239.431	58.7343	-49.3192	-235.299	33.6659	-46.3295	-260.141	59.2294	-14.1126	-252.622	59.8519	-39.0735	-246.343	35.6571	-47.7224	-245.574	46.1018	21.7618	-251.526	34.3239	40.4888	-224.479	35.1446	33.1347	
296	2.46667	-208.973	7.78981	26.3469	-197.91	3.43764	-1.09891	-185.548	7.56562	-25.1855	-181.512	7.96655	-45.2639	-201.785	59.9966	-21.0547	-199.637	58.7786	-46.4703	-207.672	28.6139	-52.884	-218.794	67.6877	-25.4657	-218.771	61.4916	-53.8294	-226.461	31.2811	-50.6481	-239.804	63.3304	-20.694	-239.154	57.7788	-49.6496	-238.203	31.0467	-48.527	-258.287	58.3837	-17.0348	-250.517	56.9881	-39.5313	-245.028	37.7668	-48.7758	-247.997	48.3126	18.2157	-249.467	30.9891	40.4591	-224.031	35.1697	34.1445	
297	2.475	-205.121	10.9219	22.6386	-198.056	4.87817	-1.20156	-186.717	5.75998	-22.6276	-183.777	7.47651	-45.1721	-201.963	59.5948	-22.0888	-200.471	55.8466	-49.6976	-208.049	26.8423	-55.6847	-225.456	66.0152	-26.1489	-220.092	59.1622	-56.0439	-224.01	25.8438	-51.7505	-241.556	62.6078	-24.3969	-241.811	56.2052	-50.7025	-234.699	26.7535	-49.0153	-261.834	53.2799	-16.7841	-254.055	54.9847	-39.6456	-247.43	27.4262	-49.3811	-250.091	42.4548	17.9063	-253.958	34.3917	39.2303	-225.129	37.4867	28.1199	
298	2.48333	-206.693	12.0579	22.7818	-193.942	3.62163	-0.388982	-187.493	7.23372	-24.2711	-183.439	6.39923	-43.2245	-207.358	59.6747	-25.4085	-206.483	55.175	-52.3182	-207.593	25.3945	-59.3525	-223.203	64.5537	-31.6682	-222.779	57.9915	-59.3844	-228.451	21.8934	-55.4336	-241.812	59.9927	-28.2603	-238.496	50.1041	-54.4508	-238.842	25.8604	-53.6018	-259.627	50.7424	-21.3324	-257.726	46.2816	-45.9204	-252.665	26.1179	-52.9001	-247.933	42.6301	15.9464	-251.675	33.2933	38.7232	-225.751	38.2347	28.3642	
299	2.49167	-205.718	14.3027	21.2686	-196.944	6.479	0.181066	-185.854	8.4982	-25.0972	-181.297	8.18128	-48.1317	-210.131	58.4447	-29.7872	-209.204	55.7428	-55.5938	-209.447	30.115	-64.3386	-230.612	63.561	-36.6134	-227.714	56.6214	-62.5978	-226.627	24.3467	-64.0645	-249.512	55.6472	-28.8727	-246.223	48.2285	-57.4737	-238.68	24.4991	-58.3429	-266.717	46.1626	-22.2621	-259.669	46.2371	-44.687	-249.614	19.6002	-55.0524	-251.486	43.3183	14.4291	-254.246	35.1604	36.2891	-227.248	39.394	25.1442	
300	2.5	-207.969	13.9357	24.9433	-194.082	10.1712	-3.53725	-187.773	10.4958	-23.4906	-181.479	7.7212	-46.7028	-214.04	57.8722	-32.2263	-206.895	54.1304	-58.2906	-212.297	27.4005	-68.8973	-234.301	60.2975	-38.2979	-230.678	53.3812	-66.3163	-227.651	22.9144	-69.337	-251.316	55.4862	-34.154	-246.665	49.1219	-58.0106	-241.584	18.4989	-63.7877	-268.196	45.3735	-27.9505	-265.012	41.5894	-49.2888	-254.649	22.0797	-58.2853	-252.158	41.003	11.8393	-251.695	37.162	33.6369	-230.739	41.5044	23.2035	
301	2.50833	-209.199	17.4354	20.8456	-192.854	11.5452	-4.16003	-183.889	8.96627	-22.6334	-179.705	8.01293	-42.2926	-214.368	53.5604	-33.0169	-208.729	51.6708	-60.738	-206.775	24.7934	-73.0041	-234.81	56.3382	-38.2447	-232.794	48.3581	-70.9819	-232.469	20.281	-76.277	-249.7	50.9485	-34.3366	-250.864	46.7389	-63.0467	-238.888	19.5893	-70.9802	-270.338	42.9262	-28.1033	-266.994	39.263	-51.5493	-256.3	22.0806	-63.3348	-256.451	40.6831	9.3633	-255.224	37.4961	32.467	-227.945	43.7036	21.7301	
302	2.51667	-206.327	17.8282	21.3605	-191.09	11.4328	-3.79053	-184.422	10.3258	-20.3169	-175.319	9.09218	-45.2123	-209.052	52.0729	-35.0216	-206.665	50.0127	-62.9639	-205.92	21.8018	-78.9882	-234.591	55.3977	-44.0558	-231.066	48.3576	-73.5111	-227.984	23.5115	-84.9125	-250.625	51.4555	-39.7747	-252.284	46.1174	-64.614	-241.618	21.278	-79.2242	-268.579	40.8554	-29.6434	-266.131	39.6765	-52.8784	-259.857	23.2131	-68.3977	-254.98	41.5593	8.02102	-257.462	36.8069	30.3955	-227.586	41.712	21.7966	
303	2.525	-208.543	17.3546	22.0694	-190.716	11.469	-1.60683	-184.639	10.4285	-20.2363	-172.652	7.37909	-39.4611	-212.389	49.2348	-37.6448	-208.191	44.9834	-67.0389	-205.156	25.08	-83.0355	-232.033	54.1749	-47.8252	-231.791	46.9041	-75.4895	-226.066	23.4076	-92.1292	-253.289	46.499	-38.5196	-247.504	45.5488	-64.7137	-243.364	26.3625	-83.6486	-266.709	38.6991	-29.3411	-270.281	37.3172	-55.7471	-264.652	27.2394	-70.4652	-253.897	42.5239	3.1915	-257.109	40.3299	27.5001	-228.857	42.4412	19.7118	
304	2.53333	-209.36	18.1676	21.0371	-190.502	9.7934	0.201133	-184.328	11.306	-20.9052	-174.528	9.40273	-40.003	-210.449	44.5176	-39.9464	-206.102	41.278	-67.5813	-205.057	25.3516	-87.0625	-234.773	48.0491	-47.0912	-232.965	46.7644	-72.4108	-231.11	27.2812	-98.1533	-251.023	44.6962	-43.2485	-247.24	41.9766	-68.9429	-246.465	29.8522	-85.231	-269.493	36.197	-32.3128	-269.576	35.5467	-53.8895	-268.45	28.7443	-73.7292	-252.041	41.7733	6.72743	-251.739	38.0452	27.3605	-225.074	42.8241	17.5187	
305	2.54167	-208.193	19.6801	20.0793	-194.953	10.8946	0.76817	-180.5	11.0186	-20.0466	-170.243	8.20982	-37.5505	-206.066	41.4377	-43.666	-205.01	39.7252	-66.6742	-201.33	24.3054	-91.3529	-235.164	43.8632	-46.277	-231.218	43.1054	-73.1325	-228.342	29.6365	-100.724	-253.836	39.7815	-42.5197	-255.198	39.0221	-66.0825	-247.553	28.9299	-87.7808	-272.481	31.2026	-28.9261	-273.834	32.7329	-52.6399	-272.23	27.1268	-74.9496	-253.729	38.6666	3.96534	-255.954	40.3162	24.9006	-228.122	42.004	17.6215	
306	2.55	-208.682	17.8391	23.1788	-194.142	10.8142	-0.444482	-179.906	11.299	-21.5812	-168.247	7.65353	-33.7846	-210.144	37.9772	-44.2986	-205.814	34.5531	-69.9846	-201.932	24.4111	-90.477	-234.243	41.0693	-48.8252	-232.585	39.4116	-74.5312	-229.806	29.2947	-102.885	-255.117	36.7605	-45.0832	-252.65	34.6747	-70.9074	-252.931	27.8888	-88.4455	-269.039	29.2433	-30.3513	-273.745	28.532	-53.2731	-277.352	25.1467	-71.7472	-252.184	38.5772	1.51755	-254.238	38.9942	25.2679	-230.291	41.9575	14.9086	
307	2.55833	-204.234	18.2796	24.125	-188.191	9.17898	4.2918	-179.777	9.44627	-17.3178	-167.763	7.7939	-34.4808	-207.634	35.9184	-43.2576	-205.704	32.2867	-67.7531	-203.018	24.1851	-88.5774	-234.767	37.2158	-50.037	-233.294	35.9522	-78.3332	-231.643	28.5342	-101.329	-250.846	34.2785	-45.4673	-251.203	31.8184	-68.8675	-254.546	26.1272	-87.8141	-271.969	26.6933	-32.0868	-274.92	26.6786	-50.3796	-279.401	23.6215	-72.8402	-253.333	35.9491	2.38839	-251.619	38.3066	23.9517	-225.344	41.2695	15.3386	
308	2.56667	-206.155	16.6379	21.3566	-188.805	8.16689	5.80279	-174.847	7.31809	-14.0249	-165.891	4.57162	-28.9765	-205.134	31.4403	-42.6298	-199.364	28.8605	-67.4965	-199.386	20.8786	-88.1159	-231.894	34.6231	-48.726	-229.537	31.6217	-74.4021	-232.08	26.8192	-98.7061	-252.161	30.4481	-45.9379	-253.122	29.0492	-67.1986	-249.418	23.9608	-86.5755	-271.716	23.2263	-28.6314	-276.867	22.4924	-52.0266	-279.926	23.4215	-68.0708	-248.907	35.0885	2.31342	-253.379	35.6811	24.782	-227.765	37.9678	13.1627	
309	2.575	-204.686	15.959	21.4268	-191.396	8.45636	3.39016	-175.803	7.87685	-16.044	-162.484	6.46378	-31.872	-205.002	28.7101	-41.2165	-203.095	25.2412	-66.6801	-197.476	18.828	-88.1528	-227.607	31.0334	-49.5152	-225.966	28.1767	-72.4462	-230.934	22.0425	-98.8408	-251.819	27.4394	-42.4804	-248.617	25.4727	-67.4651	-250.852	20.7193	-91.3536	-267.299	22.4535	-32.5636	-273.425	21.1475	-50.4762	-277.173	21.059	-70.9035	-252.334	34.8655	0.985934	-251.812	34.3526	27.4925	-226.346	38.0609	10.9988	
310	2.58333	-204.49	15.9403	22.4268	-186.715	8.3652	4.94093	-177.978	6.46024	-12.3944	-162.176	3.65136	-25.9993	-203.025	26.1543	-41.8634	-202.806	22.5369	-65.8715	-200.038	15.7559	-87.8462	-227.761	27.5225	-50.2668	-228.852	24.6884	-74.1546	-228.239	19.8033	-100.759	-250.45	25.1409	-42.9682	-248.994	23.159	-66.5039	-253.174	18.3018	-89.7314	-268.211	20.3969	-32.3227	-274.165	18.1401	-51.6172	-276.036	19.1075	-68.5462	-252.469	33.0616	0.564651	-247.687	35.1873	24.5203	-223.9	34.6591	15.3704	
311	2.59167	-205.321	13.8299	25.343	-188.492	6.70313	3.77673	-171.252	4.84622	-10.4069	-162.552	3.19701	-26.5059	-206.935	23.7484	-44.3609	-201.683	19.7966	-65.4383	-194.562	14.2719	-86.6452	-225.905	25.0527	-49.458	-229.812	21.2703	-74.2997	-227.47	16.4301	-101.25	-248.206	22.4295	-43.6044	-251.09	19.9822	-66.5472	-251.663	16.2231	-86.9312	-265.657	18.4078	-33.5964	-270.584	16.8963	-50.7167	-279.059	16.7815	-67.3655	-251.018	30.3172	-0.390614	-247.263	33.2093	27.0936	-220.771	35.3441	9.77405	
